<svg xmlns="http://www.w3.org/2000/svg" width="1692" height="151" fill="none"><g clip-path="url(#mainstrap_svg__a)"><path fill="#1A5656" d="M1691.52 0H0v151h1691.52z"></path><mask id="mainstrap_svg__b" width="242" height="87" x="0" y="32" maskUnits="userSpaceOnUse" style="mask-type:luminance"><path fill="#fff" d="M241.255 32.128H0v86.744h241.255z"></path></mask><g fill="#DFFB69" mask="url(#mainstrap_svg__b)"><path d="M-11.244 32.376h-25.959l29.047 43.212-29.047 43.212h25.96l29.078-43.212zM134.246 32.376h-25.991l29.079 43.212-29.079 43.211h25.991l29.048-43.211z"></path><path d="M40.771 32.376H14.78l29.08 43.212L14.78 118.8H40.77l29.047-43.212z"></path><path d="M82.3 118.8h25.958L79.211 75.588l29.047-43.212H82.299L53.252 75.588zM186.167 32.376h-25.959l29.047 43.212-29.047 43.212h25.959l29.047-43.212z"></path></g><mask id="mainstrap_svg__c" width="279" height="87" x="212" y="32" maskUnits="userSpaceOnUse" style="mask-type:luminance"><path fill="#fff" d="M490.776 32.289H212.304v86.423h278.472z"></path></mask><g fill="#DFFB69" mask="url(#mainstrap_svg__c)"><path d="M238.263 32.289h-25.959L241.351 75.5l-29.047 43.212h25.959L267.342 75.5zM383.756 32.289h-25.991L386.844 75.5l-29.079 43.211h25.991l29.047-43.211z"></path><path d="M290.276 32.289h-25.991L293.364 75.5l-29.079 43.212h25.991L319.323 75.5z"></path><path d="M331.806 118.712h25.959l-29.047-43.211 29.047-43.212h-25.959L302.759 75.5zM435.672 32.289h-25.959L438.76 75.5l-29.047 43.212h25.959L464.719 75.5z"></path></g><mask id="mainstrap_svg__d" width="280" height="87" x="461" y="32" maskUnits="userSpaceOnUse" style="mask-type:luminance"><path fill="#fff" d="M740.3 32.289H461.828v86.423H740.3z"></path></mask><g fill="#DFFB69" mask="url(#mainstrap_svg__d)"><path d="M487.787 32.288h-25.959L490.875 75.5l-29.047 43.212h25.959L516.866 75.5zM633.279 32.289h-25.991L636.367 75.5l-29.079 43.212h25.991L662.326 75.5z"></path><path d="M539.799 32.288h-25.991l29.08 43.212-29.08 43.212h25.991L568.847 75.5z"></path><path d="M581.329 118.712h25.959L578.241 75.5l29.047-43.211h-25.959L552.282 75.5zM685.196 32.288h-25.959L688.284 75.5l-29.047 43.212h25.959L714.243 75.5z"></path></g><mask id="mainstrap_svg__e" width="279" height="87" x="711" y="32" maskUnits="userSpaceOnUse" style="mask-type:luminance"><path fill="#fff" d="M989.82 32.289H711.348v86.423H989.82z"></path></mask><g fill="#DFFB69" mask="url(#mainstrap_svg__e)"><path d="M737.307 32.289h-25.959L740.395 75.5l-29.047 43.212h25.959L766.386 75.5zM882.801 32.289H856.81L885.889 75.5l-29.079 43.211h25.991l29.047-43.211z"></path><path d="M789.321 32.289H763.33L792.409 75.5l-29.079 43.212h25.991L818.368 75.5z"></path><path d="M830.849 118.713h25.959l-29.047-43.212 29.049-43.212h-25.959l-29.049 43.212zM934.719 32.29H908.76l29.045 43.21-29.047 43.213h25.959l29.047-43.212z"></path></g><mask id="mainstrap_svg__f" width="280" height="87" x="960" y="32" maskUnits="userSpaceOnUse" style="mask-type:luminance"><path fill="#fff" d="M1239.34 32.289H960.87v86.423h278.47z"></path></mask><g fill="#E89FAB" mask="url(#mainstrap_svg__f)"><path d="M986.829 32.289H960.87L989.917 75.5l-29.047 43.212h25.959L1015.91 75.5zM1132.32 32.289h-25.99l29.08 43.212-29.08 43.211h25.99l29.05-43.211z"></path><path d="M1038.84 32.289h-25.99l29.08 43.211-29.08 43.212h25.99l29.05-43.212z"></path><path d="M1080.37 118.712h25.96l-29.05-43.211 29.05-43.212h-25.96L1051.33 75.5zM1184.24 32.289h-25.96l29.05 43.211-29.05 43.212h25.96l29.05-43.212z"></path></g><mask id="mainstrap_svg__g" width="279" height="87" x="1210" y="32" maskUnits="userSpaceOnUse" style="mask-type:luminance"><path fill="#fff" d="M1488.87 32.289h-278.48v86.423h278.48z"></path></mask><g fill="#E89FAB" mask="url(#mainstrap_svg__g)"><path d="M1236.35 32.289h-25.96l29.05 43.211-29.05 43.212h25.96l29.08-43.212zM1381.85 32.289h-26l29.08 43.211-29.08 43.212h26l29.04-43.212z"></path><path d="M1288.37 32.289h-25.99l29.07 43.211-29.07 43.212h25.99l29.04-43.212z"></path><path d="M1329.9 118.712h25.95L1326.81 75.5l29.04-43.211h-25.95L1300.85 75.5zM1433.76 32.289h-25.96l29.05 43.211-29.05 43.212h25.96l29.05-43.212z"></path></g><mask id="mainstrap_svg__h" width="233" height="87" x="1459" y="32" maskUnits="userSpaceOnUse" style="mask-type:luminance"><path fill="#fff" d="M1691.52 32.128h-231.61v86.744h231.61z"></path></mask><g fill="#E89FAB" mask="url(#mainstrap_svg__h)"><path d="M1485.4 32.216h-25.96l29.05 43.211-29.05 43.212h25.96l29.08-43.211zM1630.9 32.215h-25.99l29.08 43.211-29.08 43.212h25.99l29.05-43.212z"></path><path d="M1537.42 32.215h-25.99l29.08 43.212-29.08 43.212h25.99l29.05-43.212z"></path><path d="M1578.95 118.639h25.96l-29.05-43.212 29.05-43.212h-25.96l-29.05 43.212zM1682.82 32.216h-25.96l29.04 43.211-29.04 43.212h25.96l29.04-43.212z"></path></g></g><defs><clipPath id="mainstrap_svg__a"><path fill="#fff" d="M0 0h1692v151H0z"></path></clipPath></defs></svg>