<svg xmlns="http://www.w3.org/2000/svg" width="457" height="50" fill="none"><path fill="#9CD5FF" d="M456.589 0H.588v49.63h456.001z"></path><path fill="#2E49CE" d="M18.85 31.772c-3.69 0-5.639-1.778-5.639-4.408h2.96c.037 1.334.843 2.204 2.79 2.204 1.499 0 2.473-.537 2.473-1.611 0-1.297-.712-1.574-3.184-1.982-3.147-.481-4.757-1.574-4.757-3.926 0-2.537 2.022-4.11 5.337-4.11 3.203 0 5.207 1.61 5.226 4.018h-2.94c-.057-1.315-1.087-1.834-2.38-1.834-1.367 0-2.21.593-2.21 1.556 0 1.24.937 1.407 3.297 1.796 2.285.352 4.645.945 4.645 4.204 0 2.426-1.892 4.093-5.619 4.093m11.908 0c-3.146 0-5-2.019-5-5.056 0-3.204 1.929-5.222 4.907-5.222 3.483 0 5.132 2.463 4.794 5.759h-6.986c-.018 1.574.9 2.463 2.285 2.463 1.05 0 1.836-.5 2.042-1.26h2.603c-.262 2-2.116 3.316-4.645 3.316m-.093-8.223c-1.255 0-2.06.76-2.173 1.963h4.27c-.075-1.314-.955-1.963-2.097-1.963m10.99 11.334c-2.66 0-4.251-1.185-4.401-3.019h2.64c.132.667.806 1.093 1.817 1.093 1.611 0 2.267-.667 2.267-2.037v-1.704h-.15c-.45 1.074-1.592 1.796-3.034 1.796-2.398 0-3.952-1.63-3.952-4.759s1.592-4.76 3.97-4.76c1.443 0 2.566.705 3.016 1.779h.15l.075-1.593h2.678v8.74c0 3.316-2.042 4.464-5.076 4.464m.15-5.963c1.405 0 2.116-1.019 2.173-2.093l-.02-1.185c-.055-1.037-.748-2.056-2.134-2.056-1.33 0-2.173.87-2.173 2.667s.862 2.667 2.154 2.667m10.661 2.852c-2.322 0-3.577-1.37-3.577-3.908V21.68h2.753v5.463c0 1.574.543 2.426 1.91 2.426 1.386 0 2.192-1.093 2.192-2.408V21.68h2.753v9.926h-2.641l-.112-1.815h-.132c-.486 1.296-1.704 1.982-3.146 1.982m8.295-.167v-9.926h2.492l.112 1.593h.094c.45-1.278 1.498-1.723 2.772-1.723h.562v2.556h-.619c-1.854 0-2.622.833-2.66 2.315v5.185zm11.737.167c-3.015 0-5.038-1.908-5.038-5.13 0-3.074 1.854-5.148 5.038-5.148 2.997 0 5.02 1.926 5.02 5.148 0 3.074-1.855 5.13-5.02 5.13m-.019-2.204c1.349 0 2.248-.945 2.248-2.926 0-1.963-.862-2.926-2.229-2.926s-2.266.944-2.266 2.926c0 1.963.88 2.926 2.248 2.926"></path><mask id="safestrap_svg__a" width="26" height="27" x="88" y="11" maskUnits="userSpaceOnUse" style="mask-type:luminance"><path fill="#fff" d="M113.09 11.852H88.117v25.926h24.973z"></path></mask><g stroke="#2E49CE" stroke-linecap="square" stroke-linejoin="bevel" mask="url(#safestrap_svg__a)"><path stroke-width="3" d="M100.447 36.547c6.986-3.945 11.322-10.01 11.322-20.649-5.347 1.704-8.831.13-11.322-3.268-2.482 3.398-5.975 4.972-11.322 3.268 0 10.64 4.326 16.704 11.322 20.649Z"></path><path fill="#2E49CE" stroke-width="1.5" d="M100.447 31.741c4.186-2.36 6.771-5.99 6.771-12.352-3.194 1.019-5.282.074-6.771-1.953-1.489 2.027-3.577 2.972-6.77 1.953 0 6.361 2.584 9.982 6.77 12.352Z"></path></g><path fill="#2E49CE" d="M129.353 31.772c-3.689 0-5.637-1.778-5.637-4.408h2.959c.038 1.334.843 2.204 2.791 2.204 1.498 0 2.472-.537 2.472-1.611 0-1.297-.712-1.574-3.184-1.982-3.146-.481-4.757-1.574-4.757-3.926 0-2.537 2.023-4.11 5.338-4.11 3.202 0 5.207 1.61 5.225 4.018h-2.94c-.056-1.315-1.087-1.834-2.379-1.834-1.367 0-2.21.593-2.21 1.556 0 1.24.936 1.407 3.296 1.796 2.285.352 4.645.945 4.645 4.204 0 2.426-1.891 4.093-5.619 4.093m11.909 0c-3.146 0-5-2.019-5-5.056 0-3.204 1.929-5.222 4.907-5.222 3.483 0 5.132 2.463 4.794 5.759h-6.986c-.018 1.574.899 2.463 2.285 2.463 1.049 0 1.836-.5 2.042-1.26h2.603c-.262 2-2.116 3.316-4.645 3.316m-.093-8.223c-1.255 0-2.061.76-2.173 1.963h4.27c-.075-1.314-.955-1.963-2.097-1.963m10.99 11.334c-2.659 0-4.251-1.185-4.401-3.019h2.641c.131.667.805 1.093 1.816 1.093 1.611 0 2.267-.667 2.267-2.037v-1.704h-.15c-.45 1.074-1.592 1.796-3.034 1.796-2.398 0-3.952-1.63-3.952-4.759s1.592-4.76 3.97-4.76c1.442 0 2.566.705 3.016 1.779h.15l.075-1.593h2.678v8.74c0 3.316-2.042 4.464-5.076 4.464m.15-5.963c1.405 0 2.116-1.019 2.173-2.093l-.019-1.185c-.056-1.037-.749-2.056-2.135-2.056-1.33 0-2.173.87-2.173 2.667s.862 2.667 2.154 2.667m10.661 2.852c-2.323 0-3.578-1.37-3.578-3.908V21.68h2.754v5.463c0 1.574.543 2.426 1.91 2.426 1.386 0 2.191-1.093 2.191-2.408V21.68h2.754v9.926h-2.641l-.113-1.815h-.131c-.487 1.296-1.704 1.982-3.146 1.982m8.296-.167v-9.926h2.491l.112 1.593h.094c.449-1.278 1.498-1.723 2.772-1.723h.562v2.556h-.618c-1.855 0-2.623.833-2.66 2.315v5.185zm11.736.167c-3.015 0-5.038-1.908-5.038-5.13 0-3.074 1.854-5.148 5.038-5.148 2.997 0 5.02 1.926 5.02 5.148 0 3.074-1.854 5.13-5.02 5.13m-.018-2.204c1.348 0 2.247-.945 2.247-2.926 0-1.963-.861-2.926-2.229-2.926-1.367 0-2.266.944-2.266 2.926 0 1.963.88 2.926 2.248 2.926"></path><mask id="safestrap_svg__b" width="26" height="27" x="198" y="11" maskUnits="userSpaceOnUse" style="mask-type:luminance"><path fill="#fff" d="M223.594 11.852h-24.973v25.926h24.973z"></path></mask><g stroke="#2E49CE" stroke-linecap="square" stroke-linejoin="bevel" mask="url(#safestrap_svg__b)"><path stroke-width="3" d="M210.951 36.547c6.986-3.945 11.322-10.01 11.322-20.649-5.347 1.704-8.831.13-11.322-3.268-2.482 3.398-5.975 4.972-11.322 3.268 0 10.64 4.327 16.704 11.322 20.649Z"></path><path fill="#2E49CE" stroke-width="1.5" d="M210.951 31.741c4.186-2.36 6.771-5.99 6.771-12.352-3.194 1.019-5.282.074-6.771-1.953-1.489 2.027-3.577 2.972-6.771 1.953 0 6.361 2.585 9.982 6.771 12.352Z"></path></g><path fill="#2E49CE" d="M239.858 31.772c-3.69 0-5.638-1.778-5.638-4.408h2.959c.038 1.334.843 2.204 2.791 2.204 1.498 0 2.472-.537 2.472-1.611 0-1.297-.711-1.574-3.184-1.982-3.146-.481-4.757-1.574-4.757-3.926 0-2.537 2.023-4.11 5.338-4.11 3.203 0 5.207 1.61 5.225 4.018h-2.94c-.056-1.315-1.086-1.834-2.379-1.834-1.367 0-2.21.593-2.21 1.556 0 1.24.937 1.407 3.297 1.796 2.285.352 4.644.945 4.644 4.204 0 2.426-1.891 4.093-5.618 4.093m11.908 0c-3.146 0-5-2.019-5-5.056 0-3.204 1.929-5.222 4.907-5.222 3.483 0 5.132 2.463 4.795 5.759h-6.987c-.018 1.574.899 2.463 2.285 2.463 1.049 0 1.836-.5 2.042-1.26h2.603c-.262 2-2.116 3.316-4.645 3.316m-.093-8.223c-1.255 0-2.06.76-2.173 1.963h4.27c-.074-1.314-.955-1.963-2.097-1.963m10.99 11.334c-2.659 0-4.251-1.185-4.401-3.019h2.641c.131.667.805 1.093 1.816 1.093 1.611 0 2.267-.667 2.267-2.037v-1.704h-.15c-.45 1.074-1.592 1.796-3.034 1.796-2.398 0-3.952-1.63-3.952-4.759s1.592-4.76 3.97-4.76c1.443 0 2.566.705 3.016 1.779h.15l.075-1.593h2.678v8.74c0 3.316-2.042 4.464-5.076 4.464m.15-5.963c1.405 0 2.117-1.019 2.173-2.093l-.019-1.185c-.056-1.037-.749-2.056-2.135-2.056-1.33 0-2.173.87-2.173 2.667s.862 2.667 2.154 2.667m10.661 2.852c-2.323 0-3.577-1.37-3.577-3.908V21.68h2.753v5.463c0 1.574.543 2.426 1.91 2.426 1.386 0 2.192-1.093 2.192-2.408V21.68h2.753v9.926h-2.641l-.112-1.815h-.132c-.487 1.296-1.704 1.982-3.146 1.982m8.296-.167v-9.926h2.491l.112 1.593h.094c.449-1.278 1.498-1.723 2.772-1.723h.562v2.556h-.618c-1.855 0-2.622.833-2.66 2.315v5.185zm11.736.167c-3.015 0-5.038-1.908-5.038-5.13 0-3.074 1.854-5.148 5.038-5.148 2.997 0 5.02 1.926 5.02 5.148 0 3.074-1.854 5.13-5.02 5.13m-.018-2.204c1.348 0 2.247-.945 2.247-2.926 0-1.963-.861-2.926-2.229-2.926-1.367 0-2.266.944-2.266 2.926 0 1.963.88 2.926 2.248 2.926"></path><mask id="safestrap_svg__c" width="26" height="27" x="309" y="11" maskUnits="userSpaceOnUse" style="mask-type:luminance"><path fill="#fff" d="M334.098 11.852h-24.972v25.926h24.972z"></path></mask><g stroke="#2E49CE" stroke-linecap="square" stroke-linejoin="bevel" mask="url(#safestrap_svg__c)"><path stroke-width="3" d="M321.455 36.547c6.986-3.945 11.322-10.01 11.322-20.649-5.347 1.704-8.831.13-11.322-3.268-2.481 3.398-5.975 4.972-11.322 3.268 0 10.64 4.327 16.704 11.322 20.649Z"></path><path fill="#2E49CE" stroke-width="1.5" d="M321.455 31.741c4.186-2.36 6.771-5.99 6.771-12.352-3.193 1.019-5.282.074-6.771-1.953-1.489 2.027-3.577 2.972-6.771 1.953 0 6.361 2.585 9.982 6.771 12.352Z"></path></g><path fill="#2E49CE" d="M350.362 31.772c-3.69 0-5.638-1.778-5.638-4.408h2.959c.038 1.334.843 2.204 2.791 2.204 1.498 0 2.472-.537 2.472-1.611 0-1.297-.711-1.574-3.184-1.982-3.146-.481-4.757-1.574-4.757-3.926 0-2.537 2.023-4.11 5.338-4.11 3.203 0 5.207 1.61 5.225 4.018h-2.94c-.056-1.315-1.086-1.834-2.379-1.834-1.367 0-2.21.593-2.21 1.556 0 1.24.937 1.407 3.297 1.796 2.285.352 4.645.945 4.645 4.204 0 2.426-1.892 4.093-5.619 4.093m11.909 0c-3.147 0-5.001-2.019-5.001-5.056 0-3.204 1.929-5.222 4.907-5.222 3.484 0 5.132 2.463 4.795 5.759h-6.987c-.018 1.574.9 2.463 2.286 2.463 1.048 0 1.835-.5 2.041-1.26h2.603c-.262 2-2.116 3.316-4.644 3.316m-.094-8.223c-1.255 0-2.06.76-2.173 1.963h4.271c-.075-1.314-.956-1.963-2.098-1.963m10.99 11.334c-2.659 0-4.251-1.185-4.401-3.019h2.641c.131.667.805 1.093 1.817 1.093 1.61 0 2.266-.667 2.266-2.037v-1.704h-.15c-.45 1.074-1.592 1.796-3.034 1.796-2.398 0-3.952-1.63-3.952-4.759s1.592-4.76 3.97-4.76c1.443 0 2.566.705 3.016 1.779h.15l.075-1.593h2.678v8.74c0 3.316-2.041 4.464-5.076 4.464m.15-5.963c1.405 0 2.117-1.019 2.173-2.093l-.019-1.185c-.056-1.037-.749-2.056-2.135-2.056-1.33 0-2.173.87-2.173 2.667s.862 2.667 2.154 2.667m10.661 2.852c-2.322 0-3.577-1.37-3.577-3.908V21.68h2.753v5.463c0 1.574.543 2.426 1.91 2.426 1.386 0 2.192-1.093 2.192-2.408V21.68h2.753v9.926h-2.641l-.112-1.815h-.131c-.487 1.296-1.705 1.982-3.147 1.982m8.296-.167v-9.926h2.491l.112 1.593h.094c.449-1.278 1.498-1.723 2.772-1.723h.562v2.556h-.618c-1.854 0-2.622.833-2.66 2.315v5.185zm11.736.167c-3.015 0-5.038-1.908-5.038-5.13 0-3.074 1.854-5.148 5.038-5.148 2.997 0 5.02 1.926 5.02 5.148 0 3.074-1.854 5.13-5.02 5.13m-.018-2.204c1.348 0 2.247-.945 2.247-2.926 0-1.963-.861-2.926-2.229-2.926-1.367 0-2.266.944-2.266 2.926 0 1.963.88 2.926 2.248 2.926"></path><mask id="safestrap_svg__d" width="26" height="27" x="419" y="11" maskUnits="userSpaceOnUse" style="mask-type:luminance"><path fill="#fff" d="M444.602 11.852H419.63v25.926h24.972z"></path></mask><g stroke="#2E49CE" stroke-linecap="square" stroke-linejoin="bevel" mask="url(#safestrap_svg__d)"><path stroke-width="3" d="M431.959 36.547c6.986-3.945 11.322-10.01 11.322-20.649-5.347 1.704-8.831.13-11.322-3.268-2.481 3.398-5.974 4.972-11.322 3.268 0 10.64 4.327 16.704 11.322 20.649Z"></path><path fill="#2E49CE" stroke-width="1.5" d="M431.959 31.741c4.186-2.36 6.771-5.99 6.771-12.352-3.193 1.019-5.282.074-6.771-1.953-1.489 2.027-3.577 2.972-6.77 1.953 0 6.361 2.584 9.982 6.77 12.352Z"></path></g></svg>