<svg width="97" height="27" viewBox="0 0 97 27" fill="none" xmlns="http://www.w3.org/2000/svg">
<path d="M4.72461 6.08709C4.72461 12.1399 4.75392 12.2876 5.50684 10.9885C7.30796 7.91798 12.3711 7.32744 15.1318 9.86639C16.3867 11.0179 17.1844 12.5239 17.583 14.5021C17.8192 15.6684 17.8192 19.2854 17.583 20.4074C16.7711 24.2752 14.6893 26.3416 11.2939 26.6369C8.88765 26.8288 6.58458 25.7516 5.50684 23.9211C4.99013 23.0353 4.72461 23.0795 4.72461 24.0539C4.72461 24.4819 4.68002 25.1903 4.63574 25.6037L4.53223 26.3859H0V0.550959H4.72461V6.08709ZM76.3096 8.52361L76.3691 14.2365C76.4282 20.2303 76.4578 20.5699 77.1074 21.5295C78.3181 23.3304 81.6247 23.1237 82.9238 21.175C83.1895 20.7764 83.47 20.2153 83.5586 19.9201C83.6471 19.5948 83.706 17.1889 83.7061 13.9416V8.52361H88.5781V26.3869H84.0459L83.9424 25.8254C83.8981 25.53 83.8535 24.7918 83.8535 24.2013C83.8535 23.3459 83.8097 23.1392 83.6182 23.1388C83.5001 23.1388 83.3076 23.3604 83.1895 23.6262C82.8498 24.4527 81.8315 25.4564 80.8574 25.9435C77.6686 27.5084 73.5644 26.3122 72.3096 23.4777C71.6601 22.0016 71.6153 21.3371 71.6006 14.7531V8.52361H76.3096ZM27.1348 8.37518C28.2568 8.16856 30.663 8.31583 31.8145 8.6701C34.7375 9.57064 36.7161 11.7264 37.4395 14.7971C37.779 16.288 37.749 18.9007 37.3652 20.3771C36.5976 23.315 34.7814 25.2644 31.9912 26.1945C30.9287 26.5339 30.5447 26.5783 28.8623 26.5783C27.1795 26.5783 26.795 26.534 25.7471 26.1945C22.9126 25.2497 21.0667 23.2859 20.2695 20.3185C19.9152 19.0046 19.9151 15.904 20.2842 14.5754C21.2291 11.121 23.5327 9.02474 27.1348 8.37518ZM45.1006 11.2541C46.0749 12.7451 46.9467 13.9846 47.0205 13.9846C47.1113 13.9808 47.9666 12.7428 48.9395 11.2541L50.7109 8.52264H53.4121C55.5367 8.52264 56.0985 8.56672 56.0107 8.6994C55.9517 8.80274 54.6525 10.7077 53.1172 12.9074C51.5976 15.1203 50.3435 17.0089 50.3418 17.0998C50.3418 17.1884 51.7591 19.2703 53.4863 21.7062C55.198 24.141 56.6441 26.1922 56.6602 26.2678C56.6897 26.3268 55.4648 26.3859 53.9297 26.3859H51.1387L49.0869 23.3596C47.9649 21.6913 46.9606 20.3332 46.8721 20.3332C46.7929 20.3358 46.201 21.0824 45.4189 22.1457L43.749 24.4543C42.9664 25.5268 42.377 26.3052 42.3105 26.3273C42.2052 26.3715 40.9957 26.3714 39.5947 26.3566L37.0703 26.3117L40.377 21.7795L43.6982 17.2472L40.7754 13.0695C39.1662 10.7665 37.7934 8.80274 37.7344 8.6994C37.6464 8.56667 38.2375 8.52264 40.4805 8.52264H43.3291L45.1006 11.2541ZM65.7988 0.181818C66.6989 -0.0395205 69.8853 -0.069552 70.2422 0.151545C70.3603 0.240123 70.4199 0.801731 70.4199 2.08612V3.8869L69.0908 3.8283C66.4189 3.6955 65.5182 4.52204 65.3115 7.25311L65.208 8.52264H69.8291V12.3615H65.2529V26.3859H60.5283V12.3615L58.0928 12.3312L55.6572 12.2873L56.9414 10.4123L58.2402 8.53729L59.3623 8.52264H60.4844L60.5732 6.85467C60.6618 5.00944 60.9711 3.91655 61.6943 2.85369C62.5949 1.55459 64.0126 0.639488 65.7988 0.181818ZM96.8457 26.3859H92.1221V0.550959H96.8457V26.3859ZM9.75879 12.2287C8.90261 12.0516 8.88739 12.0517 8.0166 12.214C7.13082 12.3912 6.59879 12.7014 5.94922 13.4543C5.108 14.4137 4.8721 15.2847 4.87207 17.4396C4.87207 20.2739 5.41792 21.5588 6.96777 22.3117C9.09355 23.3598 11.3825 22.6811 12.2979 20.7326C13.2722 18.6806 13.1095 15.2847 11.958 13.6017C11.4414 12.8637 10.7772 12.4502 9.75879 12.2287ZM28.8623 12.214C26.9727 12.214 25.7912 13.0847 25.1416 14.9152C24.9349 15.5057 24.876 16.1257 24.876 17.6017C24.876 19.4027 24.9052 19.5805 25.3037 20.4513C26.0271 22.0162 27.1199 22.7394 28.7881 22.7394C29.9395 22.7394 30.7217 22.4295 31.4746 21.7062C32.5523 20.6581 33.0548 18.5761 32.7891 16.3469C32.538 14.3688 31.7696 13.0996 30.4854 12.4943C30.0869 12.3173 29.5558 12.2141 28.8623 12.214Z" fill="#FF3401"/>
</svg>
