<svg xmlns="http://www.w3.org/2000/svg" width="861" height="50" fill="none"><g clip-path="url(#shipmentstrap_svg__a)"><path fill="#F45151" d="M860.997 0h-861v50h861z"></path><path fill="#fff" d="M18.05 34V15.775h13.306V19.1h-9.39v4.075h8.16V26.3h-8.16v4.375h9.44V34zm16.147 0V20.6h3.54l.151 2.425h.15c.729-1.775 2.386-2.675 4.294-2.675 2.687 0 4.745 1.525 4.745 5.55V34h-3.69v-7.3c0-2.25-.754-3.35-2.536-3.35-1.908 0-2.963 1.5-2.963 3.2V34zm18.41 0-4.594-13.425h3.967l2.033 7.175.804 3.2h.125l.804-3.175 2.033-7.2h3.992L57.201 34zm11.17-14.95 1.406-3.625h3.691l-2.31 3.625zM63.325 34V20.6h3.691V34zm12.816.225c-4.042 0-6.754-2.575-6.754-6.925 0-4.15 2.486-6.95 6.754-6.95 4.017 0 6.729 2.6 6.729 6.95 0 4.15-2.486 6.925-6.73 6.925m-.025-2.975c1.808 0 3.013-1.275 3.013-3.95 0-2.65-1.155-3.95-2.988-3.95s-3.038 1.275-3.038 3.95c0 2.65 1.18 3.95 3.013 3.95m14.503 3c-3.917 0-6.126-1.8-6.102-4.475h3.616c.025 1.425 1.13 2 2.586 2 1.506 0 2.284-.55 2.284-1.45 0-1.225-.853-1.4-2.761-1.675-2.988-.4-5.373-1.1-5.373-4.05 0-2.825 2.36-4.25 5.875-4.25 3.44 0 5.624 1.575 5.7 4.225h-3.616c0-1.125-.854-1.75-2.185-1.75-1.38 0-2.083.575-2.083 1.4 0 1 .853 1.3 2.837 1.55 2.787.375 5.322.925 5.322 4.2 0 2.95-2.31 4.275-6.1 4.275m20.751-.025c-4.946 0-7.557-2.4-7.557-5.95h3.967c.05 1.8 1.13 2.975 3.741 2.975 2.008 0 3.314-.725 3.314-2.175 0-1.75-.954-2.125-4.268-2.675-4.218-.65-6.377-2.125-6.377-5.3 0-3.425 2.711-5.55 7.155-5.55 4.293 0 6.98 2.175 7.005 5.425h-3.942c-.075-1.775-1.456-2.475-3.188-2.475-1.834 0-2.963.8-2.963 2.1 0 1.675 1.255 1.9 4.419 2.425 3.063.475 6.226 1.275 6.226 5.675 0 3.275-2.536 5.525-7.532 5.525m14.634 0c-3.214 0-5.373-2.325-5.373-6.925 0-4.625 2.159-6.95 5.373-6.95 2.083 0 3.64 1.025 4.268 2.575h.201l.151-2.325h3.539V34h-3.69v-2.35h-.201c-.628 1.55-2.185 2.575-4.268 2.575m1.406-2.975c2.059 0 3.013-1.6 3.013-3.325V26.65c0-1.725-.954-3.325-3.013-3.325-1.808 0-3.013 1.25-3.013 3.975 0 2.7 1.205 3.95 3.013 3.95m9.912 2.75V20.6h3.565l.126 2.425h.151c.677-1.775 2.31-2.675 4.117-2.675 1.883 0 3.54.8 4.269 3h.2c.628-2 2.411-3 4.444-3 2.586 0 4.595 1.525 4.595 5.55V34h-3.691v-7.3c0-2.25-.703-3.35-2.385-3.35-1.783 0-2.812 1.5-2.812 3.2V34h-3.691v-7.3c0-2.25-.728-3.35-2.385-3.35-1.808 0-2.812 1.5-2.812 3.2V34zm30.394.225c-4.218 0-6.703-2.725-6.703-6.825 0-4.325 2.586-7.05 6.578-7.05 4.67 0 6.879 3.325 6.427 7.775h-9.365c-.025 2.125 1.205 3.325 3.063 3.325 1.406 0 2.461-.675 2.737-1.7h3.49c-.352 2.7-2.837 4.475-6.227 4.475m-.125-11.1c-1.682 0-2.762 1.025-2.912 2.65h5.724c-.1-1.775-1.281-2.65-2.812-2.65M176.831 34V15.775h7.783c5.474 0 8.436 3.675 8.436 9.125s-2.988 9.1-8.436 9.1zm3.917-3.325h3.238c2.938 0 5.072-1.45 5.072-5.85 0-4.3-2.084-5.75-5.072-5.75h-3.238zm19.473 3.55c-3.213 0-5.373-2.325-5.373-6.925 0-4.625 2.16-6.95 5.373-6.95 2.084 0 3.641 1.025 4.269 2.575h.2l.151-2.325h3.54V34h-3.691v-2.35h-.2c-.628 1.55-2.185 2.575-4.269 2.575m1.406-2.975c2.059 0 3.013-1.6 3.013-3.325V26.65c0-1.725-.954-3.325-3.013-3.325-1.807 0-3.012 1.25-3.012 3.975 0 2.7 1.205 3.95 3.012 3.95m9.511 6.925V35.15h1.556c1.105 0 1.708-.425 2.059-1.375l.327-.825-5.147-12.35h4.042l2.461 7.175.426 1.425h.126l.402-1.425 2.31-7.175h3.941l-5.247 14.025c-1.03 2.8-2.687 3.55-4.997 3.55z"></path><path fill="#FFC2CB" d="M233.634 34V15.775h13.307V19.1h-9.39v4.075h8.159V26.3h-8.159v4.375h9.44V34zm16.148 0V20.6h3.54l.151 2.425h.15c.729-1.775 2.386-2.675 4.294-2.675 2.686 0 4.745 1.525 4.745 5.55V34h-3.69v-7.3c0-2.25-.754-3.35-2.537-3.35-1.908 0-2.962 1.5-2.962 3.2V34zm18.41 0-4.594-13.425h3.967l2.033 7.175.804 3.2h.125l.804-3.175 2.033-7.2h3.992L272.787 34zm11.17-14.95 1.406-3.625h3.691l-2.31 3.625zM278.91 34V20.6h3.691V34zm12.816.225c-4.042 0-6.754-2.575-6.754-6.925 0-4.15 2.485-6.95 6.754-6.95 4.017 0 6.728 2.6 6.728 6.95 0 4.15-2.485 6.925-6.728 6.925m-.025-2.975c1.808 0 3.013-1.275 3.013-3.95 0-2.65-1.155-3.95-2.988-3.95s-3.038 1.275-3.038 3.95c0 2.65 1.18 3.95 3.013 3.95m14.502 3c-3.916 0-6.126-1.8-6.101-4.475h3.615c.026 1.425 1.131 2 2.587 2 1.506 0 2.284-.55 2.284-1.45 0-1.225-.853-1.4-2.762-1.675-2.987-.4-5.373-1.1-5.373-4.05 0-2.825 2.361-4.25 5.876-4.25 3.439 0 5.623 1.575 5.699 4.225h-3.615c0-1.125-.854-1.75-2.185-1.75-1.38 0-2.083.575-2.083 1.4 0 1 .853 1.3 2.836 1.55 2.787.375 5.323.925 5.323 4.2 0 2.95-2.31 4.275-6.101 4.275m14.325-.25V15.775h4.67l7.707 12.875h.176l-.151-5.825v-7.05h3.767V34h-4.419l-7.708-12.6h-.176l.101 5.275V34zm25.627.225c-4.218 0-6.703-2.725-6.703-6.825 0-4.325 2.586-7.05 6.578-7.05 4.67 0 6.88 3.325 6.428 7.775h-9.366c-.024 2.125 1.206 3.325 3.063 3.325 1.406 0 2.461-.675 2.737-1.7h3.49c-.352 2.7-2.837 4.475-6.227 4.475m-.125-11.1c-1.682 0-2.762 1.025-2.912 2.65h5.724c-.1-1.775-1.281-2.65-2.812-2.65M352.377 34l5.046-6.875-4.594-6.525h4.394l2.686 4.025h.151l2.661-4.025h4.193l-4.469 6.425L367.391 34h-4.344l-3.113-4.55h-.151L356.52 34zm21.058 0c-2.736 0-3.439-1.25-3.439-3.275V23.55h-2.411V20.6h2.411v-3.65l3.665-.35v4h2.712v2.95h-2.712v6.475c0 .8.377 1 1.08 1h1.632V34zm5.618 0V15.775h7.783c5.473 0 8.436 3.675 8.436 9.125s-2.987 9.1-8.436 9.1zm3.917-3.325h3.239c2.937 0 5.071-1.45 5.071-5.85 0-4.3-2.084-5.75-5.071-5.75h-3.239zm19.473 3.55c-3.214 0-5.373-2.325-5.373-6.925 0-4.625 2.159-6.95 5.373-6.95 2.084 0 3.641 1.025 4.268 2.575h.201l.151-2.325h3.54V34h-3.691v-2.35h-.201c-.627 1.55-2.184 2.575-4.268 2.575m1.406-2.975c2.059 0 3.013-1.6 3.013-3.325V26.65c0-1.725-.954-3.325-3.013-3.325-1.808 0-3.013 1.25-3.013 3.975 0 2.7 1.205 3.95 3.013 3.95m9.511 6.925V35.15h1.557c1.105 0 1.707-.425 2.059-1.375l.326-.825-5.147-12.35h4.042l2.461 7.175.427 1.425h.125l.402-1.425 2.309-7.175h3.943l-5.248 14.025c-1.029 2.8-2.686 3.55-4.996 3.55z"></path><path fill="#fff" d="M436.498 34V15.775h13.307V19.1h-9.39v4.075h8.159V26.3h-8.159v4.375h9.44V34zm16.148 0V20.6h3.54l.151 2.425h.15c.729-1.775 2.386-2.675 4.294-2.675 2.686 0 4.745 1.525 4.745 5.55V34h-3.691v-7.3c0-2.25-.753-3.35-2.536-3.35-1.908 0-2.962 1.5-2.962 3.2V34zm18.41 0-4.594-13.425h3.967l2.033 7.175.803 3.2h.126l.804-3.175 2.033-7.2h3.992L475.651 34zm11.17-14.95 1.406-3.625h3.691l-2.31 3.625zM481.774 34V20.6h3.691V34zm12.816.225c-4.042 0-6.754-2.575-6.754-6.925 0-4.15 2.485-6.95 6.754-6.95 4.017 0 6.728 2.6 6.728 6.95 0 4.15-2.485 6.925-6.728 6.925m-.025-2.975c1.807 0 3.013-1.275 3.013-3.95 0-2.65-1.155-3.95-2.988-3.95s-3.038 1.275-3.038 3.95c0 2.65 1.18 3.95 3.013 3.95m14.502 3c-3.916 0-6.126-1.8-6.101-4.475h3.615c.026 1.425 1.13 2 2.587 2 1.506 0 2.284-.55 2.284-1.45 0-1.225-.854-1.4-2.762-1.675-2.987-.4-5.373-1.1-5.373-4.05 0-2.825 2.36-4.25 5.875-4.25 3.44 0 5.624 1.575 5.7 4.225h-3.615c0-1.125-.854-1.75-2.185-1.75-1.381 0-2.084.575-2.084 1.4 0 1 .854 1.3 2.837 1.55 2.787.375 5.323.925 5.323 4.2 0 2.95-2.31 4.275-6.101 4.275m20.752-.025c-4.946 0-7.558-2.4-7.558-5.95h3.967c.051 1.8 1.13 2.975 3.742 2.975 2.008 0 3.314-.725 3.314-2.175 0-1.75-.954-2.125-4.268-2.675-4.218-.65-6.378-2.125-6.378-5.3 0-3.425 2.712-5.55 7.156-5.55 4.293 0 6.979 2.175 7.005 5.425h-3.942c-.075-1.775-1.457-2.475-3.189-2.475-1.833 0-2.962.8-2.962 2.1 0 1.675 1.255 1.9 4.419 2.425 3.063.475 6.226 1.275 6.226 5.675 0 3.275-2.536 5.525-7.532 5.525m14.634 0c-3.214 0-5.373-2.325-5.373-6.925 0-4.625 2.159-6.95 5.373-6.95 2.083 0 3.64 1.025 4.268 2.575h.201l.15-2.325h3.54V34h-3.69v-2.35h-.201c-.628 1.55-2.185 2.575-4.268 2.575m1.406-2.975c2.058 0 3.012-1.6 3.012-3.325V26.65c0-1.725-.954-3.325-3.012-3.325-1.808 0-3.013 1.25-3.013 3.975 0 2.7 1.205 3.95 3.013 3.95m9.912 2.75V20.6h3.565l.126 2.425h.15c.678-1.775 2.31-2.675 4.118-2.675 1.883 0 3.54.8 4.268 3h.201c.627-2 2.41-3 4.444-3 2.586 0 4.595 1.525 4.595 5.55V34h-3.692v-7.3c0-2.25-.703-3.35-2.384-3.35-1.783 0-2.812 1.5-2.812 3.2V34h-3.691v-7.3c0-2.25-.728-3.35-2.385-3.35-1.808 0-2.812 1.5-2.812 3.2V34zm30.394.225c-4.218 0-6.703-2.725-6.703-6.825 0-4.325 2.585-7.05 6.578-7.05 4.67 0 6.879 3.325 6.427 7.775h-9.365c-.025 2.125 1.205 3.325 3.063 3.325 1.406 0 2.46-.675 2.737-1.7h3.489c-.351 2.7-2.836 4.475-6.226 4.475m-.125-11.1c-1.683 0-2.762 1.025-2.913 2.65h5.725c-.101-1.775-1.281-2.65-2.812-2.65M595.28 34V15.775h7.783c5.473 0 8.436 3.675 8.436 9.125s-2.988 9.1-8.436 9.1zm3.916-3.325h3.239c2.938 0 5.071-1.45 5.071-5.85 0-4.3-2.083-5.75-5.071-5.75h-3.239zm19.474 3.55c-3.214 0-5.373-2.325-5.373-6.925 0-4.625 2.159-6.95 5.373-6.95 2.084 0 3.64 1.025 4.268 2.575h.201l.151-2.325h3.539V34h-3.69v-2.35h-.201c-.628 1.55-2.184 2.575-4.268 2.575m1.406-2.975c2.059 0 3.013-1.6 3.013-3.325V26.65c0-1.725-.954-3.325-3.013-3.325-1.808 0-3.013 1.25-3.013 3.975 0 2.7 1.205 3.95 3.013 3.95m9.51 6.925V35.15h1.557c1.105 0 1.707-.425 2.059-1.375l.327-.825-5.148-12.35h4.043l2.46 7.175.427 1.425h.126l.401-1.425 2.31-7.175h3.942l-5.247 14.025c-1.03 2.8-2.687 3.55-4.997 3.55z"></path><path fill="#FFC2CB" d="M652.083 34V15.775h13.307V19.1H656v4.075h8.159V26.3H656v4.375h9.44V34zm16.148 0V20.6h3.543l.148 2.425h.153c.724-1.775 2.384-2.675 4.292-2.675 2.685 0 4.747 1.525 4.747 5.55V34h-3.696v-7.3c0-2.25-.75-3.35-2.531-3.35-1.908 0-2.965 1.5-2.965 3.2V34zm18.413 0-4.599-13.425h3.97l2.035 7.175.804 3.2h.12l.804-3.175 2.035-7.2h3.99L691.237 34zm11.168-14.95 1.406-3.625h3.689l-2.31 3.625zM697.356 34V20.6h3.696V34zm12.822.225c-4.044 0-6.756-2.575-6.756-6.925 0-4.15 2.484-6.95 6.756-6.95 4.017 0 6.728 2.6 6.728 6.95 0 4.15-2.49 6.925-6.728 6.925m-.027-2.975c1.808 0 3.013-1.275 3.013-3.95 0-2.65-1.158-3.95-2.986-3.95-1.835 0-3.04 1.275-3.04 3.95 0 2.65 1.178 3.95 3.013 3.95m14.502 3c-3.917 0-6.126-1.8-6.1-4.475h3.616c.02 1.425 1.125 2 2.584 2 1.507 0 2.283-.55 2.283-1.45 0-1.225-.85-1.4-2.758-1.675-2.993-.4-5.376-1.1-5.376-4.05 0-2.825 2.363-4.25 5.878-4.25 3.435 0 5.624 1.575 5.698 4.225h-3.616c0-1.125-.857-1.75-2.182-1.75-1.386 0-2.089.575-2.089 1.4 0 1 .857 1.3 2.838 1.55 2.786.375 5.323.925 5.323 4.2 0 2.95-2.31 4.275-6.099 4.275m14.321-.25V15.775h4.673l7.706 12.875h.174l-.147-5.825v-7.05h3.763V34h-4.419l-7.706-12.6h-.174l.1 5.275V34zm25.629.225c-4.218 0-6.702-2.725-6.702-6.825 0-4.325 2.584-7.05 6.575-7.05 4.673 0 6.882 3.325 6.427 7.775h-9.36c-.027 2.125 1.205 3.325 3.06 3.325 1.406 0 2.464-.675 2.738-1.7h3.488c-.348 2.7-2.838 4.475-6.226 4.475m-.127-11.1c-1.681 0-2.759 1.025-2.913 2.65h5.725c-.101-1.775-1.279-2.65-2.812-2.65M770.823 34l5.048-6.875-4.593-6.525h4.392l2.685 4.025h.154l2.658-4.025h4.198l-4.473 6.425L785.84 34h-4.345l-3.113-4.55h-.148L774.967 34zm21.063 0c-2.739 0-3.442-1.25-3.442-3.275V23.55h-2.41V20.6h2.41v-3.65l3.663-.35v4h2.711v2.95h-2.711v6.475c0 .8.381 1 1.084 1h1.627V34zm5.617 0V15.775h7.78c5.476 0 8.436 3.675 8.436 9.125s-2.986 9.1-8.436 9.1zm3.917-3.325h3.24c2.933 0 5.068-1.45 5.068-5.85 0-4.3-2.082-5.75-5.068-5.75h-3.24zm19.469 3.55c-3.213 0-5.369-2.325-5.369-6.925 0-4.625 2.156-6.95 5.369-6.95 2.089 0 3.642 1.025 4.272 2.575h.201l.147-2.325h3.542V34h-3.689v-2.35h-.201c-.63 1.55-2.183 2.575-4.272 2.575m1.406-2.975c2.062 0 3.013-1.6 3.013-3.325V26.65c0-1.725-.951-3.325-3.013-3.325-1.808 0-3.013 1.25-3.013 3.975 0 2.7 1.205 3.95 3.013 3.95m9.514 6.925V35.15h1.553c1.105 0 1.708-.425 2.063-1.375l.328-.825-5.149-12.35h4.044l2.457 7.175.428 1.425h.128l.401-1.425 2.31-7.175h3.937l-5.242 14.025c-1.031 2.8-2.692 3.55-5.002 3.55z"></path></g><defs><clipPath id="shipmentstrap_svg__a"><path fill="#fff" d="M0 0h861v50H0z"></path></clipPath></defs></svg>